<?xml version="1.0" encoding="UTF-8" standalone="no"?>
<!-- Created with Inkscape (http://www.inkscape.org/) -->

<svg
   xmlns:dc="http://purl.org/dc/elements/1.1/"
   xmlns:cc="http://creativecommons.org/ns#"
   xmlns:rdf="http://www.w3.org/1999/02/22-rdf-syntax-ns#"
   xmlns:svg="http://www.w3.org/2000/svg"
   xmlns="http://www.w3.org/2000/svg"
   xmlns:sodipodi="http://sodipodi.sourceforge.net/DTD/sodipodi-0.dtd"
   xmlns:inkscape="http://www.inkscape.org/namespaces/inkscape"
   width="744.09448"
   height="1052.3622"
   id="svg2"
   version="1.1"
   inkscape:version="0.48.4 r9939"
   sodipodi:docname="FrontPage.svg">
  <defs
     id="defs4" />
  <sodipodi:namedview
     id="base"
     pagecolor="#ffffff"
     bordercolor="#666666"
     borderopacity="1.0"
     inkscape:pageopacity="0.0"
     inkscape:pageshadow="2"
     inkscape:zoom="0.98994949"
     inkscape:cx="346.85405"
     inkscape:cy="456.74088"
     inkscape:document-units="mm"
     inkscape:current-layer="layer3"
     showgrid="false"
     inkscape:window-width="1680"
     inkscape:window-height="1000"
     inkscape:window-x="0"
     inkscape:window-y="0"
     inkscape:window-maximized="1"
     showguides="false"
     inkscape:guide-bbox="true"
     units="mm"
     inkscape:snap-grids="false"
     inkscape:snap-bbox="true"
     inkscape:snap-bbox-midpoints="true"
     inkscape:snap-global="true"
     inkscape:snap-to-guides="true">
    <sodipodi:guide
       orientation="0,1"
       position="-35.433071,350.7874"
       id="guide3069" />
    <sodipodi:guide
       orientation="0,1"
       position="-35.433071,701.5748"
       id="guide3071" />
    <inkscape:grid
       units="mm"
       empspacing="10"
       visible="true"
       enabled="true"
       snapvisiblegridlinesonly="true"
       type="xygrid"
       id="grid3073" />
    <sodipodi:guide
       orientation="0,1"
       position="-35.433071,526.1811"
       id="guide3079" />
    <sodipodi:guide
       orientation="0,1"
       position="-35.433071,175.3937"
       id="guide3081" />
    <sodipodi:guide
       orientation="0,1"
       position="-35.433071,876.9685"
       id="guide3083" />
    <sodipodi:guide
       orientation="0,1"
       position="-35.433071,789.27165"
       id="guide3085" />
    <sodipodi:guide
       orientation="0,1"
       position="-35.433071,613.87795"
       id="guide3087" />
    <sodipodi:guide
       orientation="0,1"
       position="-35.433071,87.69685"
       id="guide3089" />
  </sodipodi:namedview>
  <metadata
     id="metadata7">
    <rdf:RDF>
      <cc:Work
         rdf:about="">
        <dc:format>image/svg+xml</dc:format>
        <dc:type
           rdf:resource="http://purl.org/dc/dcmitype/StillImage" />
        <dc:title />
      </cc:Work>
    </rdf:RDF>
  </metadata>
  <g
     inkscape:groupmode="layer"
     id="layer3"
     inkscape:label="Deckblatt"
     transform="translate(0,-2.5390623e-6)"
     style="display:inline">
    <g
       id="g3055"
       transform="translate(93.781433,248.90889)">
      <text
         sodipodi:linespacing="125%"
         id="text3047"
         y="434.14883"
         x="279.31418"
         style="font-size:16px;font-style:normal;font-variant:normal;font-weight:normal;font-stretch:normal;text-align:center;line-height:125%;letter-spacing:2.13999987px;word-spacing:0px;text-anchor:middle;fill:#000000;fill-opacity:1;stroke:none;font-family:EB Garamond 12 All SC;-inkscape-font-specification:EB Garamond 12 All SC"
         xml:space="preserve"><tspan
           y="434.14883"
           x="280.38419"
           id="tspan3049"
           sodipodi:role="line">jan dismas</tspan></text>
      <text
         sodipodi:linespacing="125%"
         id="text3051"
         y="452.66589"
         x="277.94019"
         style="font-size:12px;font-style:normal;font-variant:normal;font-weight:normal;font-stretch:normal;text-align:center;line-height:125%;letter-spacing:5.19000053px;word-spacing:0px;text-anchor:middle;fill:#d40000;fill-opacity:1;stroke:none;font-family:EB Garamond;-inkscape-font-specification:EB Garamond"
         xml:space="preserve"><tspan
           style="font-size:20px;letter-spacing:5.19000053px;fill:#d40000"
           y="452.66589"
           x="280.53519"
           id="tspan3053"
           sodipodi:role="line">ZELENKA</tspan></text>
    </g>
    <text
       xml:space="preserve"
       style="font-size:12px;font-style:normal;font-variant:normal;font-weight:normal;font-stretch:normal;text-align:center;line-height:110.00000238%;letter-spacing:0px;word-spacing:0px;text-anchor:middle;fill:#000000;fill-opacity:1;stroke:none;font-family:EB Garamond;-inkscape-font-specification:EB Garamond"
       x="372.3208"
       y="412.09424"
       id="text3061"
       sodipodi:linespacing="110%"><tspan
         sodipodi:role="line"
         x="372.3208"
         y="412.09424"
         id="tspan3067"
         style="font-size:14px;font-style:normal;line-height:110.00000238%;-inkscape-font-specification:EB Garamond">Nisi Dominus .</tspan><tspan
         sodipodi:role="line"
         x="372.3208"
         y="427.49423"
         style="font-size:14px;font-style:normal;line-height:110.00000238%;-inkscape-font-specification:EB Garamond"
         id="tspan3075" /><tspan
         sodipodi:role="line"
         x="372.3208"
         y="442.89423"
         style="font-size:14px;font-style:normal;line-height:110.00000238%;-inkscape-font-specification:EB Garamond"
         id="tspan3077">ZWV Z 92</tspan></text>
    <text
       xml:space="preserve"
       style="font-size:14px;font-style:normal;font-variant:normal;font-weight:normal;font-stretch:normal;text-align:center;line-height:125%;letter-spacing:1.84000015px;word-spacing:0px;text-anchor:middle;fill:#000000;fill-opacity:1;stroke:none;font-family:EB Garamond 12 All SC;-inkscape-font-specification:EB Garamond 12 All SC"
       x="372.06738"
       y="967.76636"
       id="text3099"
       sodipodi:linespacing="125%"><tspan
         sodipodi:role="line"
         x="372.9874"
         y="967.76636"
         id="tspan3023">full score</tspan></text>
    <text
       sodipodi:linespacing="110%"
       id="text3021"
       y="876.96851"
       x="371.86884"
       style="font-size:12px;font-style:normal;font-variant:normal;font-weight:normal;font-stretch:normal;text-align:center;line-height:110.00000238%;letter-spacing:0px;word-spacing:0px;text-anchor:middle;fill:#000000;fill-opacity:1;stroke:none;font-family:EB Garamond;-inkscape-font-specification:EB Garamond"
       xml:space="preserve"><tspan
         id="tspan3032"
         style="font-size:14px;font-style:normal;line-height:110.00000238%;-inkscape-font-specification:EB Garamond"
         y="876.96851"
         x="371.86884"
         sodipodi:role="line">Ob / Vn / Va / SATB (soli) / SATB (coro) / BOrg</tspan></text>
    <path
       style="fill:#000000"
       d="m 492.62995,298.74791 c -0.4576,-0.26653 -0.40371,-0.56721 0.22856,-1.27541 0.53854,-0.6032 0.56066,-0.60995 0.92341,-0.28167 0.46494,0.42078 0.46383,0.55435 -0.0103,1.22017 -0.40728,0.57198 -0.62685,0.63677 -1.14167,0.33691 z m -109.47029,-1.65794 c -0.25394,-0.0755 -0.8213,-0.14556 -1.26081,-0.15569 -1.03617,-0.0239 -1.73781,-0.69996 -2.14324,-2.0652 -0.33146,-1.11614 -0.21021,-2.15468 0.47256,-4.04771 0.2015,-0.55867 0.51414,-1.55595 0.69477,-2.21619 0.33762,-1.23412 1.45671,-3.73792 1.71968,-3.84754 0.0812,-0.0339 0.14768,-0.15207 0.14768,-0.2627 0,-0.23319 1.79577,-2.36382 2.20485,-2.61599 0.1517,-0.0935 0.4694,-0.36361 0.70601,-0.60022 0.23661,-0.23661 0.47149,-0.43019 0.52194,-0.43019 0.0982,0 0.43873,-0.26392 1.0128,-0.7849 0.19587,-0.17776 0.42906,-0.3232 0.5182,-0.3232 0.0891,0 0.26553,-0.12466 0.39198,-0.27702 0.26524,-0.3196 1.10809,-0.37595 1.10809,-0.0741 0,0.54934 -0.69076,1.54017 -1.36742,1.96143 -0.84165,0.52398 -1.40281,1.05273 -1.40281,1.3218 0,0.0975 -0.29102,0.3572 -0.6467,0.57702 -0.38651,0.23888 -0.68999,0.59788 -0.75429,0.89231 -0.0592,0.27094 -0.34473,1.19903 -0.63457,2.06242 -0.6411,1.90978 -1.28872,4.31245 -1.28872,4.78118 0,0.18958 -0.11543,0.44048 -0.25651,0.55757 -0.37378,0.31021 -0.66469,1.67224 -0.51281,2.40104 0.19694,0.94511 0.84734,1.33282 2.27208,1.35443 0.98809,0.015 1.36792,-0.075 2.20043,-0.52122 0.55341,-0.29663 1.0339,-0.60167 1.06776,-0.67785 0.0339,-0.0762 0.21196,-0.13851 0.39578,-0.13851 0.18382,0 0.38205,-0.12466 0.44052,-0.27702 0.0585,-0.15236 0.22664,-0.27702 0.37373,-0.27702 0.14709,0 0.30935,-0.10389 0.36058,-0.23086 0.066,-0.16343 0.0974,-0.15312 0.10773,0.0353 0.0108,0.1964 0.0891,0.1722 0.29899,-0.0923 0.2806,-0.3537 0.28365,-0.35355 0.22783,0.0109 -0.0317,0.20674 -0.19934,0.37013 -0.38085,0.37111 -0.17835,9.2e-4 -0.46786,0.21914 -0.64337,0.48485 -0.52132,0.7893 -1.51751,1.62643 -1.80443,1.51632 -0.1495,-0.0574 -0.31818,0.0339 -0.38511,0.20825 -0.0655,0.17069 -0.29474,0.38811 -0.50943,0.48317 -0.21469,0.0951 -0.67167,0.34259 -1.01551,0.55008 -0.34384,0.20749 -0.74462,0.33141 -0.89062,0.27539 -0.146,-0.056 -0.40487,-0.0321 -0.57527,0.0532 -0.1704,0.0853 -0.51758,0.0933 -0.77152,0.0178 z m 95.26006,-0.19093 c -0.95547,-0.14798 -1.37272,-0.47549 -1.89606,-1.48827 -0.52344,-1.01298 -0.24682,-1.76621 0.86587,-2.35784 0.84318,-0.44832 0.87146,-0.45096 1.24148,-0.11611 0.25394,0.22983 0.37864,0.57154 0.37864,1.03767 0,0.38225 0.0504,0.82646 0.1121,0.98713 0.16666,0.43431 1.01132,0.35845 2.13321,-0.19161 0.54265,-0.26605 1.16043,-0.56391 1.37285,-0.66191 0.54537,-0.25159 2.84571,-2.50625 2.84571,-2.7892 0,-0.12911 0.16827,-0.56397 0.37391,-0.96635 0.68199,-1.33445 0.77014,-1.99454 0.53042,-3.97239 -0.22148,-1.82743 -0.37161,-2.0991 -0.88815,-1.60712 -0.19759,0.1882 -0.21986,0.15626 -0.12058,-0.17285 0.067,-0.22204 0.47107,-0.77879 0.898,-1.23724 0.42691,-0.45844 1.06837,-1.1494 1.42547,-1.53546 1.73847,-1.87945 2.07283,-1.72627 1.47542,0.67595 -0.11269,0.45311 -0.17975,1.69971 -0.14904,2.77023 0.0634,2.21065 0.0319,2.38629 -0.76687,4.26866 -0.48294,1.13813 -0.84411,1.63054 -2.1234,2.89501 -0.84782,0.838 -1.62337,1.52363 -1.72347,1.52363 -0.1001,0 -0.305,0.18772 -0.45533,0.41716 -0.15034,0.22943 -0.51309,0.54095 -0.80614,0.69226 -0.29304,0.15131 -0.57436,0.32685 -0.62515,0.3901 -0.11417,0.14215 -2.28467,1.2399 -2.83175,1.43217 -0.2201,0.0774 -0.79031,0.0802 -1.26714,0.006 z m -84.36382,-1.1682 c 0,-0.34705 0.0674,-0.6587 0.1497,-0.69256 0.24592,-0.10112 1.51244,-2.26112 1.51244,-2.57939 0,-0.16191 0.20895,-0.50333 0.46434,-0.75871 0.52713,-0.52713 1.50791,-2.28882 2.64842,-4.75713 0.30508,-0.66023 0.85477,-1.98995 1.22154,-2.95491 0.36678,-0.96496 0.83356,-2.11773 1.0373,-2.56171 0.38875,-0.84711 0.38328,-1.15112 -0.0121,-0.67469 -0.12849,0.15482 -0.30114,0.28149 -0.38366,0.28149 -0.0825,0 -0.384,0.0932 -0.66995,0.20721 -0.28594,0.11396 -0.72766,0.22782 -0.9816,0.25302 -0.25394,0.0252 -0.85909,0.23322 -1.34479,0.46227 -0.48569,0.22904 -1.09144,0.41644 -1.34611,0.41644 -0.54804,0 -1.00153,0.88542 -1.00474,1.96172 -0.003,1.0452 -0.92313,3.71726 -1.27989,3.71726 -0.0929,0 -0.42555,0.54333 -0.73931,1.2074 -0.31376,0.66407 -0.69059,1.2535 -0.8374,1.30984 -0.14681,0.0563 -0.32237,0.2771 -0.39013,0.49059 -0.12531,0.39481 -0.77769,1.03786 -1.06426,1.04903 -0.0867,0.003 0.10029,-0.28763 0.41554,-0.64667 0.31524,-0.35905 0.57317,-0.72665 0.57317,-0.8169 0,-0.0902 0.1964,-0.39901 0.43644,-0.68613 0.24004,-0.28713 0.49967,-0.72982 0.57696,-0.98375 0.0773,-0.25394 0.284,-0.59881 0.45937,-0.76638 0.18778,-0.17943 0.36958,-0.73636 0.44227,-1.35485 0.0679,-0.5776 0.24219,-1.27983 0.38734,-1.56052 0.14514,-0.28068 0.23241,-0.75139 0.19392,-1.04601 -0.0385,-0.29463 -0.0761,-0.74345 -0.0836,-0.99739 -0.008,-0.25534 -0.29937,-0.77284 -0.65295,-1.15781 -0.66793,-0.72723 -1.10832,-1.90877 -0.907,-2.4334 0.199,-0.5186 1.45937,-1.76457 1.78495,-1.76457 0.37923,0 0.82078,0.81974 0.98088,1.82099 0.21031,1.3152 1.27372,1.60144 3.0226,0.81359 0.35146,-0.15832 0.76699,-0.30233 0.92341,-0.32002 0.15641,-0.0177 0.40905,-0.0823 0.56141,-0.14358 0.15237,-0.0613 0.60945,-0.20567 1.01575,-0.32088 0.40631,-0.11519 1.13325,-0.38492 1.61544,-0.59939 0.48218,-0.21446 0.91059,-0.35506 0.95202,-0.31245 0.1839,0.1892 0.15856,0.69015 -0.072,1.42237 -0.38271,1.21559 -0.0418,1.36264 0.97852,0.42211 0.85683,-0.78981 0.92427,-0.81755 2.83648,-1.16699 1.35044,-0.24679 1.55107,-0.13961 2.01558,1.07669 0.26845,0.70293 0.38542,0.81652 0.84079,0.81652 0.29092,0 0.52895,-0.0771 0.52895,-0.17127 0,-0.20965 1.88749,-1.1215 2.32146,-1.1215 0.17206,0 0.58206,-0.1664 0.91112,-0.36977 0.68983,-0.42633 1.85575,-0.52509 2.44925,-0.20746 1.16918,0.62573 1.54302,3.25862 0.70463,4.96252 -0.26215,0.53277 -0.47663,1.1353 -0.47663,1.33895 0,0.20748 -0.1229,0.37027 -0.27953,0.37027 -0.15816,0 -0.47075,0.42098 -0.71995,0.96958 -0.24223,0.53327 -0.57186,1.26045 -0.73251,1.61596 -0.16065,0.35552 -0.36577,0.77105 -0.45583,0.92341 -0.38852,0.65736 -1.32128,2.69589 -1.32122,2.88751 1.1e-4,0.30912 0.73373,0.73233 1.5237,0.87898 0.38091,0.0707 0.69256,0.19203 0.69256,0.26959 0,0.68508 -2.0007,1.3577 -3.19696,1.07479 -0.79852,-0.18885 -1.32583,-0.84116 -1.18325,-1.46374 0.25477,-1.11236 0.75686,-2.26717 1.70616,-3.92415 0.34916,-0.60945 0.68499,-1.23275 0.74629,-1.38511 0.0613,-0.15237 0.27081,-0.59653 0.46557,-0.98704 0.19475,-0.3905 0.3541,-0.85549 0.3541,-1.0333 0,-0.1778 0.15723,-0.46558 0.3494,-0.63949 0.78221,-0.70788 0.61252,-3.94212 -0.23049,-4.39329 -0.40223,-0.21527 -1.78105,0.10367 -1.78105,0.41197 0,0.0975 -0.11189,0.17727 -0.24865,0.17727 -0.68593,0 -2.52158,1.28154 -2.52158,1.76041 0,0.11762 -0.15862,0.3574 -0.35249,0.53285 -0.19387,0.17545 -0.45688,0.58309 -0.58446,0.90586 -0.12759,0.32278 -0.33242,0.71153 -0.45519,0.86389 -0.12277,0.15236 -0.27754,0.58059 -0.34395,0.95161 -0.0762,0.42571 -0.28923,0.785 -0.57743,0.97384 -0.25119,0.16459 -0.45671,0.40644 -0.45671,0.53745 0,0.24194 -0.78313,2.01744 -1.11306,2.52351 -0.0993,0.15237 -0.25869,0.44324 -0.35414,0.64639 -0.0954,0.20315 -0.50082,0.72555 -0.90082,1.16088 -0.4,0.43533 -0.91966,1.15417 -1.1548,1.59742 -0.23515,0.44325 -0.66065,0.94362 -0.94557,1.11192 -0.28491,0.16831 -0.51803,0.41708 -0.51803,0.55283 0,0.40677 -0.47206,0.46003 -0.70937,0.08 -0.18425,-0.29503 -0.12639,-0.54512 0.34668,-1.49861 0.31231,-0.62947 0.66387,-1.2602 0.78125,-1.40162 0.25366,-0.30565 0.6304,-0.93944 0.78811,-1.32584 0.0622,-0.15237 0.1993,-0.43605 0.30469,-0.63042 2.80756,-5.17766 3.74242,-7.61024 3.53873,-9.20805 -0.12163,-0.95416 -0.31352,-1.2022 -0.68897,-0.8906 -0.13187,0.10944 -0.2837,0.15504 -0.33741,0.10133 -0.12789,-0.12789 -1.04358,0.29153 -1.52269,0.69744 -2.04386,1.73164 -2.79169,2.79747 -3.33925,4.7592 -0.0709,0.25394 -0.23254,0.58636 -0.35924,0.73873 -0.12671,0.15236 -0.28645,0.51265 -0.35499,0.80063 -0.0685,0.28799 -0.32652,0.71074 -0.5733,0.93945 -0.24678,0.22871 -0.72129,0.9382 -1.05446,1.57665 -1.01485,1.94475 -1.06485,2.01825 -1.70468,2.50627 -0.3408,0.25995 -0.67544,0.69494 -0.74363,0.96664 -0.1295,0.51596 -1.16076,1.70036 -1.48347,1.70376 -0.10254,0.001 -0.29023,0.16818 -0.4171,0.37133 -0.34676,0.55525 -0.59691,0.44561 -0.59691,-0.26163 z m -39.19877,0.11523 c -0.3809,-0.0333 -0.69255,-0.1385 -0.69255,-0.23374 0,-0.0953 -0.3253,-0.14388 -0.72289,-0.10807 -0.39759,0.0358 -1.12477,-0.0115 -1.61597,-0.10504 -0.49119,-0.0936 -1.10085,-0.19214 -1.35479,-0.21903 -0.8238,-0.0872 -1.55061,-0.31447 -2.54167,-0.79467 -1.04259,-0.50516 -1.29372,-0.94268 -1.06475,-1.85498 0.14227,-0.56684 1.30996,-2.07852 1.60555,-2.07852 0.10481,0 0.45245,-0.11491 0.77253,-0.25537 1.37202,-0.60206 1.84896,-0.70994 3.1566,-0.71403 1.08701,-0.003 1.59015,0.0927 2.35849,0.45047 0.53718,0.25014 1.43378,0.60788 1.99244,0.795 0.55867,0.18711 1.2198,0.47159 1.46919,0.63218 1.73374,1.11644 3.47599,0.95073 5.63708,-0.53614 0.4451,-0.30623 0.87786,-0.55679 0.96168,-0.55679 0.2541,0 1.58089,-1.33831 2.38789,-2.40861 1.35838,-1.80157 2.05064,-3.04382 2.65806,-4.76979 l 0.59641,-1.6947 -0.13498,-2.90456 c -0.0742,-1.59751 -0.12491,-3.23699 -0.1126,-3.64329 0.0946,-3.12079 2.03642,-6.54522 4.42462,-7.80282 0.57741,-0.30405 0.94596,-0.28597 0.53469,0.0262 -0.17776,0.13493 -0.32319,0.3611 -0.32319,0.50259 0,0.14149 -0.29088,0.66637 -0.64639,1.16641 -0.48459,0.68159 -0.64639,1.09779 -0.64639,1.66276 0,0.41449 -0.0816,1.03812 -0.18132,1.38586 -0.16908,0.58954 -0.19411,1.51957 -0.158,5.8712 0.0232,2.79225 -0.18769,4.39132 -0.67342,5.10708 -0.23525,0.34667 -0.48581,0.81329 -0.5568,1.03695 -0.071,0.22365 -0.27428,0.55185 -0.45176,0.72934 -0.17749,0.17748 -0.56404,0.80019 -0.85901,1.38379 -0.29497,0.5836 -0.84796,1.37939 -1.22886,1.76841 -0.38091,0.38902 -0.69256,0.79695 -0.69256,0.9065 0,0.10955 -0.0655,0.19918 -0.14553,0.19918 -0.08,0 -0.58813,0.41554 -1.12908,0.92341 -0.54096,0.50788 -1.09398,0.92341 -1.22894,0.92341 -0.34384,0 -2.6383,1.70673 -2.65436,1.97444 -0.0231,0.38447 0.18063,0.45598 2.48166,0.87122 0.57494,0.10376 3.80378,-0.2317 4.03765,-0.41949 0.11462,-0.092 0.48411,-0.22632 0.82109,-0.29841 0.33698,-0.0721 0.6602,-0.25487 0.71826,-0.40617 0.086,-0.22413 0.13449,-0.22946 0.26172,-0.0288 0.24293,0.38324 0.1891,1.07741 -0.0836,1.07741 -0.13494,0 -0.63,0.25477 -1.10012,0.56617 -0.47012,0.31139 -1.10767,0.57336 -1.41678,0.58215 -0.33352,0.009 -0.56201,0.11482 -0.56201,0.2591 0,0.13372 -0.11625,0.19851 -0.25834,0.14399 -0.14209,-0.0545 -0.30197,-0.0285 -0.35529,0.0577 -0.0813,0.13156 -2.98136,0.1704 -3.26469,0.0437 -0.0508,-0.0227 -0.46633,-0.0577 -0.92341,-0.0778 -1.18025,-0.0519 -3.56989,-0.47155 -3.76989,-0.66203 -0.0971,-0.0925 -0.60136,0.077 -1.18928,0.39961 -1.17752,0.64623 -2.42943,1.10925 -2.64275,0.97741 -0.0809,-0.05 -0.29425,-0.0233 -0.47411,0.0594 -0.17985,0.0827 -0.63866,0.12304 -1.01957,0.0897 z m 1.61597,-2.14098 c 0.20315,-0.0365 0.44187,-0.0769 0.53049,-0.0899 0.23861,-0.0349 -0.25982,-0.57762 -0.53049,-0.57762 -0.12749,0 -0.33681,-0.12654 -0.46516,-0.28119 -0.12836,-0.15466 -0.37025,-0.23775 -0.53755,-0.18465 -0.1673,0.0531 -0.63023,-0.0697 -1.02873,-0.27286 -0.3985,-0.20316 -0.81875,-0.36939 -0.9339,-0.36939 -0.11514,0 -0.35977,-0.16621 -0.54362,-0.36936 -0.27202,-0.30058 -0.56881,-0.36937 -1.59368,-0.36937 -1.20784,0 -1.27094,0.0223 -1.54117,0.54488 -0.15497,0.29968 -0.28177,0.75356 -0.28177,1.00863 0,0.5125 0.53602,0.73074 2.298,0.93562 0.50209,0.0584 0.95918,0.15367 1.01575,0.21174 0.0964,0.099 2.7995,-0.0406 3.61183,-0.18653 z m 100.34447,1.82625 c -0.0448,-0.0448 -0.35738,-0.10249 -0.69461,-0.12818 -1.25532,-0.0957 -1.5056,-1.56794 -0.60138,-3.53762 0.31924,-0.69541 0.83137,-1.55015 1.13801,-1.89942 0.30667,-0.34927 0.55758,-0.75432 0.55758,-0.90011 0,-0.23885 2.1571,-3.71901 2.85588,-4.60754 0.15604,-0.19841 0.28371,-0.49989 0.28371,-0.66994 0,-0.17006 0.12202,-0.41045 0.27115,-0.53422 0.2433,-0.20193 1.20631,-1.78076 1.20631,-1.97774 0,-0.0437 -0.22855,0.0409 -0.50788,0.18803 -0.27933,0.14715 -0.84246,0.4054 -1.25142,0.57388 -0.40894,0.16849 -0.90758,0.55119 -1.10809,0.85046 -0.20049,0.29926 -0.46843,0.54435 -0.5954,0.54464 -0.32454,7.4e-4 -0.28816,-0.35843 0.0494,-0.48798 0.15415,-0.0592 0.25804,-0.21077 0.23085,-0.33692 -0.0698,-0.32397 1.60783,-1.86491 2.31534,-2.12665 0.32458,-0.12008 0.73445,-0.2945 0.91082,-0.3876 0.17639,-0.0931 0.42124,-0.16927 0.54413,-0.16927 0.27421,0 1.66518,-0.92765 1.86842,-1.24607 0.22203,-0.34785 1.05275,-0.29329 1.05275,0.0691 0,0.34995 -1.12586,2.71732 -1.33555,2.80828 -0.0781,0.0339 -0.14191,0.26503 -0.14191,0.51372 0,0.25984 -0.42512,1.01914 -0.99954,1.78526 -1.00417,1.33927 -1.95537,2.96698 -1.95537,3.34602 0,0.11189 -0.33243,0.5671 -0.73873,1.01159 -0.4063,0.44449 -0.73873,0.93212 -0.73873,1.08363 0,0.15151 -0.24932,0.55943 -0.55404,0.9065 -0.30473,0.34706 -0.55405,0.76074 -0.55405,0.91928 0,0.15854 -0.16069,0.51392 -0.35708,0.78973 -0.57919,0.8134 -0.6627,1.43014 -0.22532,1.66421 0.63555,0.34014 2.64016,0.24288 3.49371,-0.1695 0.42046,-0.20315 0.85956,-0.36937 0.97575,-0.36937 0.22542,0 1.14527,-0.60918 1.73213,-1.14713 0.19565,-0.17935 0.5073,-0.37421 0.69256,-0.433 0.18523,-0.0588 0.3368,-0.1844 0.3368,-0.27913 0,-0.0947 0.0831,-0.17224 0.18469,-0.17224 0.46805,0 3.18292,-2.77266 3.40742,-3.47996 0.0679,-0.2138 0.30544,-0.53633 0.52798,-0.71674 0.22255,-0.18041 0.60619,-0.70199 0.85255,-1.15908 0.24637,-0.45709 0.50077,-0.87262 0.56533,-0.92341 0.0646,-0.0508 0.41969,-0.59482 0.78919,-1.20896 0.58913,-0.97926 1.19201,-1.6031 4.32272,-4.47303 0.71248,-0.65313 1.05509,-0.20692 0.56559,0.73661 -0.23368,0.45042 -1.67985,2.32868 -2.50822,3.25765 -0.39761,0.44588 -0.61326,0.79508 -1.54195,2.49686 -0.17288,0.31679 -0.31832,0.70149 -0.3232,0.85489 -0.005,0.15341 -0.21663,0.50298 -0.47057,0.77684 -0.25393,0.27386 -0.4617,0.58244 -0.4617,0.68573 0,0.21664 -1.09197,2.72636 -1.87282,4.30436 -0.57917,1.17045 0.30814,1.77243 1.91764,1.30096 0.53401,-0.15643 1.15109,-0.36713 1.37128,-0.46824 0.2202,-0.10111 0.61647,-0.18383 0.88062,-0.18383 0.26414,0 0.52518,-0.0727 0.58013,-0.1616 0.12154,-0.19667 1.37375,-0.21786 1.36365,-0.0231 -0.0113,0.21673 -1.67418,0.9719 -2.58588,1.17427 -0.45295,0.10055 -1.13391,0.38682 -1.51325,0.63617 -0.37932,0.24934 -0.8364,0.4821 -1.01575,0.51723 -0.17932,0.0351 -0.45071,0.11117 -0.60308,0.16898 -0.5234,0.19859 -1.30167,0.27007 -1.38971,0.12764 -0.0485,-0.0784 -0.24256,-0.10219 -0.43134,-0.0528 -0.26427,0.0691 -0.41292,-0.0844 -0.64621,-0.66747 -0.16664,-0.41647 -0.30297,-0.94009 -0.30297,-1.16361 0,-0.63059 0.43653,-2.35636 0.59604,-2.35636 0.0785,0 0.14269,-0.20777 0.14269,-0.46171 0,-0.33858 -0.0985,-0.4617 -0.36936,-0.4617 -0.20315,0 -0.36937,0.0831 -0.36937,0.18468 0,0.10158 -0.0864,0.18468 -0.19192,0.18468 -0.10555,0 -0.59551,0.39476 -1.08881,0.87724 -1.1541,1.12879 -2.29231,2.06341 -3.33632,2.73954 -0.45709,0.29603 -0.92816,0.66283 -1.04681,0.81513 -0.11868,0.1523 -0.27352,0.21914 -0.34412,0.14855 -0.0706,-0.0706 -0.45486,0.002 -0.8539,0.16195 -0.44926,0.17976 -1.02993,0.25599 -1.52488,0.20021 -0.43962,-0.0496 -0.92326,-0.0207 -1.07474,0.064 -0.15148,0.0848 -0.31208,0.11747 -0.35688,0.0727 z m -170.8807,-0.33807 c -0.32226,-0.23564 -0.31904,-0.29667 0.0828,-1.5698 0.22993,-0.72854 0.47625,-1.32462 0.54738,-1.32462 0.32436,0 0.55687,-1.0783 0.56881,-2.63799 0.0147,-1.92255 -0.28961,-4.89329 -0.56629,-5.52789 -0.19827,-0.45475 -0.70945,-2.65817 -0.82624,-3.56143 -0.0394,-0.30472 -0.28483,-1.48405 -0.5454,-2.62072 -0.26057,-1.13667 -0.47872,-2.54949 -0.48478,-3.1396 -0.006,-0.5901 -0.0829,-1.4469 -0.17086,-1.90398 -0.24218,-1.25903 -1.57649,-6.75376 -1.9957,-8.21836 -0.20352,-0.71102 -0.53451,-1.87452 -0.73554,-2.58554 -0.20103,-0.71103 -0.49923,-1.66676 -0.66267,-2.12385 -0.16344,-0.45709 -0.29838,-0.92915 -0.29986,-1.04903 -0.001,-0.11989 -0.24492,-0.74319 -0.54098,-1.38512 -0.29606,-0.64193 -0.71934,-1.70734 -0.94061,-2.36758 -0.22128,-0.66024 -0.51131,-1.4082 -0.64452,-1.66214 -0.1332,-0.25394 -0.42008,-1.11152 -0.63752,-1.90575 -0.41911,-1.53093 -1.22345,-3.45003 -1.44598,-3.45003 -0.0732,0 -0.5333,0.54071 -1.02243,1.20157 -0.6361,0.85944 -0.85615,1.30608 -0.77282,1.56863 0.0894,0.28152 0.0491,0.34121 -0.1726,0.25613 -0.23619,-0.0906 -0.28909,0.0426 -0.28909,0.72787 0,0.46134 -0.0914,1.07276 -0.20316,1.3587 -0.29558,0.75643 -0.7502,3.11677 -0.84713,4.39823 -0.0461,0.60945 -0.18886,1.1912 -0.31724,1.29277 -0.37577,0.2973 -0.5265,1.19712 -0.2564,1.53057 0.13454,0.16609 0.14737,0.24004 0.0294,0.16937 -0.28637,-0.17154 -0.69892,0.87778 -0.66939,1.70259 0.013,0.36326 -0.14778,1.32533 -0.35731,2.13793 -0.20952,0.8126 -0.40432,1.72678 -0.43288,2.03151 -0.0286,0.30472 -0.17916,1.01113 -0.33466,1.56979 -0.48415,1.73943 -0.88152,3.3967 -0.93154,3.88514 -0.0264,0.25768 -0.25905,0.92254 -0.51702,1.47745 -0.25796,0.55492 -0.51578,1.31635 -0.57293,1.69207 -0.10275,0.67549 -0.63977,2.00079 -0.88312,2.17945 -0.0692,0.0508 -0.18562,0.53174 -0.25875,1.06878 -0.0731,0.53704 -0.33673,1.35967 -0.58577,1.82806 -0.24905,0.46838 -0.68683,1.52491 -0.97285,2.34783 -0.45131,1.29846 -2.10851,5.0067 -2.85581,6.3903 -1.0628,1.96775 -2.48712,3.87832 -2.89127,3.87832 -0.2153,0 -1.43765,0.86528 -1.7478,1.23724 -0.10157,0.12182 -0.51711,0.25924 -0.92341,0.30539 -0.70698,0.0803 -1.92946,0.47182 -2.12384,0.68021 -0.13089,0.14032 -2.37098,0.0685 -3.12033,-0.1001 -0.79821,-0.17954 -1.17923,-0.38578 -2.36812,-1.28182 -1.09,-0.82152 -1.40533,-1.46334 -1.15234,-2.34548 0.18583,-0.64792 1.03268,-1.63504 1.40272,-1.63504 0.12832,0 0.29976,-0.11003 0.38099,-0.24451 0.0812,-0.13448 0.41611,-0.43975 0.74419,-0.67837 0.57782,-0.42027 0.60807,-0.42339 0.96597,-0.0995 0.49253,0.44574 0.62973,1.29406 0.40644,2.51301 -0.15946,0.87046 -0.13652,1.07926 0.17405,1.58447 0.19675,0.32004 0.46271,0.62219 0.59104,0.67143 0.32011,0.12284 3.42737,-0.56593 4.00235,-0.88718 0.25643,-0.14327 0.73819,-0.39003 1.07058,-0.54836 1.46723,-0.69892 3.23914,-2.81746 4.14727,-4.95857 0.30865,-0.72769 0.66623,-1.5724 0.79462,-1.87713 0.12839,-0.30472 0.37564,-1.05268 0.54945,-1.66213 0.1738,-0.60946 0.40254,-1.27237 0.50831,-1.47314 0.49398,-0.93768 1.40107,-3.68293 2.44236,-7.3916 0.83739,-2.9825 0.75225,-2.62623 1.12544,-4.7094 0.17287,-0.96496 0.38234,-1.88797 0.4655,-2.05112 0.19741,-0.38733 0.81862,-3.52686 1.09239,-5.52084 0.11854,-0.86339 0.33982,-1.84665 0.49173,-2.18501 0.15191,-0.33837 0.23086,-0.66056 0.17544,-0.71598 -0.0554,-0.0554 0.0106,-0.31876 0.14666,-0.58521 0.13608,-0.26646 0.30432,-0.77534 0.37387,-1.13085 0.0696,-0.35552 0.33096,-1.3528 0.58091,-2.21619 1.09543,-3.78384 1.4269,-4.56323 2.51174,-5.90573 0.28546,-0.35326 0.51902,-0.76024 0.51902,-0.90439 0,-0.14415 0.29346,-0.62022 0.65213,-1.05794 l 0.65213,-0.79583 -0.4894,-1.16235 c -0.26917,-0.63929 -0.57644,-1.37011 -0.68283,-1.62405 -0.10638,-0.25393 -0.20416,-0.54481 -0.21729,-0.64638 -0.0131,-0.10158 -0.13015,-0.16185 -0.26006,-0.13394 -0.13234,0.0284 -0.18044,-0.0394 -0.1094,-0.15439 0.17638,-0.28539 -0.66837,-1.77834 -2.25055,-3.97742 -1.61906,-2.25034 -2.07193,-2.80629 -3.38924,-4.16068 -0.55866,-0.57439 -1.14456,-1.19886 -1.30201,-1.38772 -0.61071,-0.73257 -2.86026,-2.6566 -3.39679,-2.90526 -2.51061,-1.16359 -2.42737,-1.14184 -5.08701,-1.32879 -1.95461,-0.13739 -3.25628,0.23909 -4.34237,1.25592 -0.4063,0.38039 -0.83314,0.69252 -0.94853,0.69361 -0.1154,0.001 -0.34784,0.29287 -0.51654,0.64838 -0.2771,0.58394 -0.65877,0.87277 -0.65877,0.49852 0,-0.34818 0.48087,-1.14215 0.69256,-1.14347 0.12697,-7.9e-4 0.23085,-0.17876 0.23085,-0.39548 0,-0.2273 0.3712,-0.7548 0.87724,-1.2466 1.95546,-1.90046 3.78623,-2.65088 5.8882,-2.41354 1.95048,0.22023 4.74943,0.72432 4.86283,0.87579 0.14003,0.18704 2.03362,1.33157 2.20304,1.33157 0.23832,0 5.61227,5.55498 6.33178,6.54509 2.04149,2.80924 3.49505,5.29186 4.27769,7.30607 0.75442,1.94162 3.18932,6.62873 3.50296,6.74311 0.18358,0.0669 0.41006,0.32238 0.50331,0.56763 0.0932,0.24525 0.25469,0.4459 0.35878,0.4459 0.10409,0 0.18925,0.10496 0.18925,0.23323 0,0.12828 0.18699,0.31527 0.41554,0.41554 0.22854,0.10026 0.44209,0.36929 0.47455,0.59784 0.0325,0.22854 0.13634,0.41553 0.23085,0.41553 0.0945,0 0.17184,0.17522 0.17184,0.38939 0,0.33026 0.0771,0.37147 0.50787,0.27141 0.37681,-0.0875 0.43639,-0.0696 0.23086,0.0695 -0.18632,0.12608 -0.20144,0.18839 -0.0462,0.19029 0.12696,10e-4 0.23085,0.12749 0.23085,0.27985 0,0.15237 0.0674,0.27703 0.14986,0.27703 0.0824,0 0.33662,0.174 0.56489,0.38666 0.29028,0.27044 0.55056,0.35265 0.86589,0.27351 0.40346,-0.10126 0.45086,-0.0545 0.45086,0.4444 0.19629,0.71997 0.30286,0.76117 0.0398,1.28186 -0.46799,-0.29679 -1.00082,-0.53961 -1.18409,-0.53961 -0.19265,0 -0.33494,-0.13633 -0.33731,-0.32319 -0.004,-0.35054 -0.62054,-1.24395 -0.86259,-1.25088 -0.31138,-0.009 -1.13436,-0.95048 -1.41241,-1.61593 -0.15937,-0.38143 -0.41818,-0.74279 -0.57513,-0.80302 -0.15695,-0.0602 -0.28546,-0.2045 -0.28559,-0.3206 -3.6e-4,-0.28411 -0.89762,-1.31397 -1.02974,-1.18184 -0.10937,0.10937 0.39616,1.74594 0.64075,2.07431 0.0775,0.10407 0.28724,0.60475 0.46605,1.11262 0.17882,0.50788 0.55531,1.50516 0.83664,2.21619 0.79255,2.00303 1.33104,3.60639 1.55064,4.61705 0.11035,0.50787 0.2731,0.9743 0.36165,1.03649 0.0885,0.0622 0.35115,1.10103 0.58356,2.30853 0.4655,2.41852 1.25902,5.78421 1.67731,7.1143 0.14803,0.47072 0.26915,1.21437 0.26915,1.65256 0,1.45141 0.42964,4.40998 1.01693,7.00271 0.41152,1.81678 0.68338,3.49788 0.7317,4.52471 0.0617,1.31129 0.29788,2.66537 0.48505,2.78105 0.31096,0.19218 0.87927,-0.2939 1.08994,-0.93223 0.11748,-0.35598 0.35268,-0.75138 0.52267,-0.87866 0.37267,-0.27906 0.62437,-0.76912 1.21728,-2.37002 0.50659,-1.36781 1.17082,-2.706 1.41943,-2.85965 0.091,-0.0563 0.16555,-0.25993 0.16555,-0.45258 0,-0.19264 0.20777,-0.65642 0.46171,-1.03062 0.25394,-0.3742 0.4617,-0.78453 0.4617,-0.91185 0,-0.12732 0.12466,-0.27933 0.27703,-0.3378 0.15236,-0.0585 0.27702,-0.26495 0.27702,-0.45885 0,-0.1939 0.12466,-0.45601 0.27702,-0.58246 0.15237,-0.12645 0.27703,-0.42862 0.27703,-0.6715 0,-0.38847 0.28699,-1.09295 0.55404,-1.36 0.0508,-0.0508 0.17545,-0.22928 0.27703,-0.39665 0.10157,-0.16738 0.45979,-0.6984 0.79605,-1.18005 0.43079,-0.61707 0.55352,-0.93358 0.41553,-1.07157 -0.29957,-0.29957 -0.23439,-0.49132 0.16703,-0.49132 0.19958,0 0.4503,-0.16336 0.55715,-0.36302 0.16511,-0.30852 0.11064,-0.40627 -0.36287,-0.65113 -0.73185,-0.37846 -0.70281,-0.4477 0.14033,-0.33461 0.59885,0.0803 0.72616,0.0321 0.90041,-0.34077 0.47255,-1.01128 0.6964,-1.55374 0.71271,-1.72709 0.01,-0.10158 0.15844,-0.45065 0.33085,-0.77573 0.17241,-0.32508 0.31347,-0.73007 0.31347,-0.89998 0,-0.16991 0.26173,-0.81812 0.58162,-1.44046 0.31989,-0.62233 0.64651,-1.26653 0.72582,-1.43153 0.73413,-1.52742 1.72181,-3.30129 1.83814,-3.30129 0.15667,0 0.73274,-1.56476 0.73274,-1.99032 0,-0.14431 0.13085,-0.53813 0.29078,-0.87514 0.38837,-0.81844 0.28323,-1.60998 -0.24461,-1.84156 -0.22854,-0.10026 -0.41553,-0.2457 -0.41553,-0.32319 0,-0.0775 -0.18699,-0.14154 -0.41554,-0.14233 -0.40901,-10e-4 -0.87724,-0.67158 -0.87724,-1.25557 0,-0.1552 -0.11163,-0.21712 -0.27702,-0.15366 -0.15236,0.0585 -0.27702,0.0258 -0.27702,-0.0726 0,-0.0984 0.12466,-0.17889 0.27702,-0.17889 0.15236,0 0.27702,-0.0867 0.27702,-0.19274 0,-0.10601 0.20864,-0.41766 0.46364,-0.69256 0.255,-0.2749 0.42829,-0.59205 0.38509,-0.70479 -0.11628,-0.30345 1.21912,-0.95024 1.82789,-0.88533 0.59405,0.0633 1.17252,0.55952 1.28099,1.09878 0.0399,0.19849 0.15764,0.58052 0.26158,0.84895 0.24083,0.62198 0.1016,1.1396 -0.57697,2.14505 -0.29868,0.44255 -0.4924,0.85529 -0.43049,0.9172 0.0619,0.0619 0.11255,0.002 0.11255,-0.13369 0,-0.13543 0.0442,-0.20209 0.0981,-0.14813 0.054,0.0539 -0.0229,0.3379 -0.17074,0.63099 -0.14787,0.29309 -0.3659,0.90687 -0.48451,1.36396 -0.30137,1.16134 -1.1023,2.78986 -1.59669,3.24653 -0.22862,0.21117 -0.4977,0.74906 -0.59796,1.1953 -0.10027,0.44623 -0.30529,0.90128 -0.45562,1.0112 -0.15033,0.10992 -0.45291,0.75575 -0.67241,1.43517 -0.2195,0.67942 -0.47517,1.28233 -0.56816,1.3398 -0.093,0.0575 -0.16907,0.25888 -0.16907,0.44757 0,0.18869 -0.0849,0.37139 -0.18879,0.406 -0.10383,0.0346 -0.23261,0.30458 -0.28616,0.59994 -0.0536,0.29535 -0.25948,0.76465 -0.4576,1.04289 -0.19812,0.27824 -0.36022,0.76315 -0.36022,1.07759 0,0.33568 -0.0958,0.57171 -0.23194,0.57171 -0.12757,0 -0.33684,0.23697 -0.46504,0.52659 -0.1282,0.28963 -0.47864,0.7675 -0.77875,1.06192 -0.30012,0.29444 -0.59874,0.80543 -0.66361,1.13555 -0.0653,0.3324 -0.23239,0.60022 -0.37443,0.60022 -0.15728,0 -0.25646,0.19839 -0.25646,0.513 0,0.28446 -0.16455,0.65389 -0.36937,0.82926 -0.20315,0.17394 -0.37201,0.46251 -0.37524,0.64126 -0.003,0.17875 -0.12789,0.48632 -0.27702,0.68349 -0.14913,0.19717 -0.27115,0.50883 -0.27115,0.69256 0,0.18374 -0.0831,0.33407 -0.18468,0.33407 -0.10158,0 -0.18468,0.10537 -0.18468,0.23415 0,0.12878 -0.19662,0.52354 -0.43694,0.87724 -0.24031,0.3537 -0.49227,0.89516 -0.55992,1.20326 -0.0676,0.30809 -0.32811,0.79888 -0.57882,1.09064 -0.25348,0.295 -0.45583,0.76367 -0.45583,1.0558 0,0.34383 -0.0957,0.52532 -0.27702,0.52532 -0.19941,0 -0.27702,0.20404 -0.27702,0.72826 0,0.48792 -0.10945,0.8079 -0.33164,0.96958 -0.46515,0.33848 -1.14582,1.50312 -1.14582,1.96053 0,0.21056 -0.0831,0.4342 -0.18468,0.49698 -0.10158,0.0628 -0.18468,0.26951 -0.18468,0.45941 0,0.1899 -0.12466,0.46994 -0.27703,0.6223 -0.15236,0.15236 -0.27702,0.36283 -0.27702,0.4677 0,0.10488 -0.17058,0.34961 -0.37908,0.54385 -0.20849,0.19424 -0.3917,0.52077 -0.40714,0.72563 -0.0166,0.22038 -0.1247,0.33538 -0.26474,0.28164 -0.27286,-0.10471 -0.62463,0.66741 -0.71766,1.57519 -0.0715,0.69794 -0.94525,2.57344 -1.39237,2.98876 -0.16413,0.15246 -0.36072,0.56799 -0.43686,0.92341 -0.23521,1.09788 -0.74081,1.39491 -1.46859,0.86274 z m 138.55724,-0.0354 c -0.055,-0.055 -0.33984,-0.13187 -0.63303,-0.17088 -0.87526,-0.11646 -1.13611,-0.2846 -1.44222,-0.92968 -0.36401,-0.76711 -0.37084,-1.398 -0.0201,-1.86167 0.14913,-0.19717 0.27379,-0.54889 0.27702,-0.78159 0.007,-0.47657 1.00161,-2.52187 1.5012,-3.08586 0.31484,-0.35542 2.19831,-4.56398 2.19831,-4.91205 0,-0.0935 0.25107,-0.51649 0.55792,-0.9401 0.75135,-1.03719 0.47504,-1.2806 -0.68421,-0.60275 -0.4892,0.28606 -1.1244,0.75427 -1.41154,1.04046 -0.50254,0.50089 -1.04772,0.6899 -1.04772,0.36324 0,-0.42223 0.4325,-1.32033 0.63583,-1.32033 0.12669,0 0.38476,-0.17063 0.57349,-0.37918 0.18873,-0.20855 0.85728,-0.61715 1.48565,-0.90799 0.62837,-0.29085 1.19899,-0.62021 1.26803,-0.73193 0.069,-0.11171 0.19304,-0.16139 0.27556,-0.11039 0.0825,0.051 0.45444,-0.11386 0.82651,-0.36635 0.37206,-0.25249 0.72028,-0.45908 0.77381,-0.45908 0.0535,0 0.2257,-0.12837 0.3826,-0.28526 0.1569,-0.1569 0.37951,-0.25207 0.49468,-0.21148 0.27992,0.0986 0.16333,1.03092 -0.17068,1.36494 -0.14646,0.14645 -0.26629,0.35768 -0.26629,0.4694 0,0.11171 -0.11032,0.33432 -0.24516,0.49468 -0.13484,0.16036 -0.35118,0.66555 -0.48076,1.12264 -0.12958,0.45709 -0.37797,0.96551 -0.55197,1.12983 -0.17903,0.16908 -0.42001,0.87874 -0.55513,1.63486 -0.30803,1.72359 -1.13394,3.53313 -1.95263,4.27813 -0.35569,0.32367 -0.64672,0.65915 -0.64672,0.74551 0,0.15625 -0.61515,1.61672 -0.9385,2.22816 -0.5222,0.98746 0.38107,1.51814 2.36707,1.39069 0.74873,-0.048 1.45663,-0.18267 1.57311,-0.29915 0.29971,-0.2997 0.69197,-0.26272 0.69197,0.0652 0,0.15237 -0.071,0.27703 -0.15772,0.27703 -0.0867,0 -0.38028,0.20627 -0.65231,0.45837 -0.68337,0.63333 -0.9655,0.76084 -2.23723,1.01112 -0.60945,0.11995 -1.23876,0.25483 -1.39847,0.29974 -0.15971,0.0449 -0.33537,0.0367 -0.39034,-0.0183 z m 21.36511,-0.0878 c -0.60945,-0.0563 -1.29361,-0.22326 -1.52032,-0.37106 -0.44115,-0.28755 -0.78821,-1.0728 -0.78821,-1.78335 0,-0.51698 0.66024,-1.98391 1.03167,-2.29217 0.14361,-0.11918 0.26111,-0.29543 0.26111,-0.39166 0,-0.0962 0.26893,-0.56392 0.59763,-1.03931 0.63896,-0.92411 1.05721,-1.63736 1.48157,-2.52648 0.14546,-0.30472 0.40294,-0.66891 0.57222,-0.8093 0.58655,-0.48643 1.58897,-3.17846 1.59407,-4.28094 0.004,-0.74879 -0.6981,-2.00208 -1.33887,-2.39175 -0.53817,-0.32729 -0.6224,-0.33305 -1.02382,-0.07 -0.24057,0.15763 -0.48007,0.24391 -0.53224,0.19175 -0.0521,-0.0522 -0.4314,0.14897 -0.84274,0.44695 -0.41136,0.29798 -0.9042,0.54179 -1.09522,0.54179 -0.19102,0 -0.60269,0.29087 -0.91482,0.64639 -0.31215,0.35551 -0.66796,0.64638 -0.7907,0.64638 -0.27549,0 -0.92967,0.86331 -1.12226,1.48103 -0.2671,0.85665 -1.46643,2.99779 -1.99782,3.56664 -0.29117,0.3117 -0.6532,0.87611 -0.80449,1.25424 -0.15129,0.37813 -0.39328,0.73287 -0.53776,0.7883 -0.14447,0.0554 -0.26267,0.25008 -0.26267,0.43253 0,0.46402 -0.68552,1.69255 -1.2669,2.27041 -0.26818,0.26655 -0.69128,0.83156 -0.94024,1.25557 -0.24897,0.42401 -0.5427,0.77094 -0.65274,0.77094 -0.11005,0 -0.34735,0.24932 -0.52736,0.55404 -0.32725,0.554 -0.59371,0.66781 -0.96625,0.41271 -0.35228,-0.24121 -0.41432,-0.69757 -0.15783,-1.16074 0.13781,-0.24882 0.25349,-0.62922 0.25709,-0.84532 0.004,-0.21611 0.12507,-0.4913 0.26995,-0.61153 0.36006,-0.29882 2.49087,-3.44802 2.80896,-4.15146 0.25202,-0.5573 0.41005,-0.83388 1.01075,-1.76888 0.16341,-0.25437 0.46891,-0.96445 0.67887,-1.57794 0.20995,-0.6135 0.50487,-1.36146 0.65537,-1.66214 0.44833,-0.89575 0.64865,-1.43463 0.77893,-2.09541 0.11965,-0.60695 0.10857,-0.62161 -0.37786,-0.49952 -0.57988,0.14554 -1.38606,0.63951 -1.38606,0.84929 0,0.21566 -0.51602,0.37088 -0.83107,0.24998 -0.401,-0.15388 -0.33429,-0.45405 0.24063,-1.08253 0.77069,-0.84254 1.34701,-1.15165 2.91073,-1.56123 1.74931,-0.45819 1.9274,-0.36303 1.9274,1.02979 0,0.54623 0.0291,0.99314 0.0648,0.99314 0.43875,0 1.56333,-0.63642 2.60922,-1.47664 1.01422,-0.81476 1.53801,-1.09673 2.40475,-1.29452 0.60945,-0.13907 1.1912,-0.22857 1.29277,-0.19889 0.25512,0.0746 0.70778,0.16872 0.89264,0.18569 0.0846,0.008 0.42943,0.29784 0.76618,0.64461 0.77409,0.79709 1.11826,2.17805 0.82563,3.31276 -0.31473,1.22051 -1.11245,3.24608 -1.38613,3.51978 -0.32354,0.32353 -0.88725,1.27509 -1.37608,2.32283 -0.21266,0.45582 -0.563,1.01647 -0.77853,1.24587 -0.2155,0.22941 -0.33684,0.47211 -0.26963,0.53933 0.0672,0.0672 -0.15501,0.4623 -0.49383,0.87796 -0.7909,0.97028 -1.04282,1.45531 -1.04282,2.00777 0,0.5009 0.51755,1.05651 0.98411,1.05651 0.16976,0 0.30866,0.0928 0.30866,0.20622 0,0.11961 0.17449,0.16526 0.41554,0.1087 0.22854,-0.0536 0.60284,-0.14171 0.83177,-0.19574 0.22891,-0.054 0.49327,-0.14586 0.58745,-0.20406 0.0942,-0.0582 0.22833,-0.0134 0.29812,0.0995 0.19583,0.31688 -0.30382,1.09092 -0.78163,1.21084 -0.23531,0.0591 -0.42784,0.18148 -0.42784,0.27204 0,0.0906 -0.14959,0.16466 -0.33242,0.16466 -0.18284,0 -0.41138,0.0648 -0.50788,0.14402 -0.0965,0.0792 -0.67409,0.0979 -1.28354,0.0417 z m -147.28448,-0.53974 c -3.7e-4,-0.0592 -0.24739,-0.27304 -0.54911,-0.4752 -0.58224,-0.3901 -0.82758,-1.06343 -0.7657,-2.10143 0.0479,-0.80286 0.44882,-2.47551 0.84693,-3.53318 0.17205,-0.45709 0.38284,-1.12194 0.46842,-1.47746 0.18865,-0.78372 0.63484,-2.00841 1.11868,-3.07051 0.19732,-0.43315 0.35877,-0.86504 0.35877,-0.95975 0,-0.0947 0.12051,-0.27221 0.26779,-0.39444 0.2573,-0.21354 0.5662,-0.80141 1.36265,-2.59321 0.20317,-0.45709 0.58427,-1.0804 0.84689,-1.38512 0.26262,-0.30473 0.5273,-0.81871 0.58817,-1.14219 0.0609,-0.32348 0.26866,-0.73112 0.46175,-0.90586 0.19309,-0.17475 0.35108,-0.42258 0.35108,-0.55073 0,-0.12816 0.10388,-0.27011 0.23085,-0.31546 0.12697,-0.0453 0.17053,-0.14722 0.0968,-0.22639 -0.0737,-0.0792 -0.24759,-0.0497 -0.38635,0.0655 -0.13877,0.11516 -0.307,0.15471 -0.37383,0.0879 -0.0668,-0.0668 -0.12152,0.017 -0.12152,0.18629 0,0.18468 -0.14775,0.3078 -0.36937,0.3078 -0.20315,0 -0.36936,-0.11448 -0.36936,-0.25441 0,-0.30652 0.44924,-0.71225 0.6103,-0.55119 0.063,0.063 0.21416,-0.1039 0.33584,-0.37097 0.12168,-0.26706 0.30524,-0.48557 0.40791,-0.48557 0.10266,0 0.31787,-0.11231 0.47823,-0.24958 0.16036,-0.13727 0.66555,-0.44554 1.12263,-0.68504 0.45709,-0.2395 1.18135,-0.76492 1.60946,-1.16759 0.65352,-0.61469 0.79751,-0.68233 0.89755,-0.42163 0.0655,0.17078 -10e-4,0.49686 -0.14896,0.72462 -0.14746,0.22776 -0.32613,0.64956 -0.39704,0.93733 -0.0709,0.28777 -0.35415,0.86032 -0.62943,1.27234 -0.27528,0.41201 -0.61845,0.96518 -0.76261,1.22925 -0.14415,0.26408 -0.4558,0.63252 -0.69256,0.81874 -0.32639,0.25675 -0.43145,0.52511 -0.43456,1.1101 -0.003,0.47999 -0.14057,0.94594 -0.36526,1.2332 -0.19863,0.25393 -0.36299,0.56272 -0.36525,0.68619 -0.002,0.12346 -0.25343,0.47953 -0.55816,0.79126 -0.39625,0.40537 -0.55404,0.74595 -0.55404,1.1959 0,0.34602 -0.09,0.68474 -0.19997,0.75271 -0.25966,0.16048 -0.90813,1.67469 -0.90813,2.12053 0,0.18969 -0.10388,0.41134 -0.23085,0.49257 -0.32299,0.20663 -0.69357,1.31526 -0.55787,1.6689 0.0715,0.1864 0.0384,0.24791 -0.0905,0.16821 -0.35765,-0.22104 -0.58425,0.45384 -0.98088,2.92126 -0.0974,0.60595 -0.25891,1.18355 -0.35891,1.28354 -0.3173,0.31731 -0.19955,1.00887 0.20902,1.22753 0.4305,0.23039 1.9408,-0.0687 2.28706,-0.45295 0.10157,-0.11271 0.44853,-0.21651 0.77102,-0.23065 0.32249,-0.0142 0.85467,-0.15959 1.18264,-0.3232 0.32796,-0.16361 0.73741,-0.29747 0.90989,-0.29747 0.17248,0 0.57449,-0.24932 0.89336,-0.55405 0.31886,-0.30472 0.65219,-0.55404 0.74072,-0.55404 0.1451,0 0.71311,-0.41082 2.05858,-1.48889 0.25394,-0.20347 0.52948,-0.36296 0.61232,-0.35442 0.0828,0.009 0.31741,-0.19652 0.52128,-0.4557 0.20387,-0.25917 0.46852,-0.4724 0.58811,-0.47384 0.1196,-0.001 0.54988,-0.41284 0.95618,-0.91422 0.4063,-0.50138 0.80431,-0.91574 0.88447,-0.92079 0.19562,-0.0123 1.9781,-1.83114 1.9781,-2.0184 0,-0.0812 0.20777,-0.24235 0.46171,-0.35806 0.27712,-0.12626 0.4617,-0.36397 0.4617,-0.59459 0,-0.21987 0.0825,-0.33326 0.19277,-0.26508 0.10603,0.0655 0.3158,0.017 0.46617,-0.10776 0.15037,-0.12479 0.32053,-0.17976 0.37814,-0.12216 0.24227,0.24227 -0.19123,0.90693 -0.91732,1.40649 -0.42845,0.29479 -0.94128,0.75205 -1.1396,1.01615 -0.19833,0.26409 -0.46384,0.48017 -0.59003,0.48017 -0.12619,0 -0.40074,0.33578 -0.61011,0.74617 -0.20937,0.41039 -0.58727,0.82472 -0.83978,0.92072 -0.25251,0.096 -0.51921,0.32121 -0.59266,0.50044 -0.0735,0.17923 -0.25146,0.32588 -0.39555,0.32588 -0.26843,0 -0.94377,1.01094 -0.82127,1.22938 0.0374,0.0667 -0.078,0.0831 -0.25636,0.0365 -0.1784,-0.0466 -0.50747,0.0858 -0.73126,0.29425 -0.22378,0.20849 -0.53888,0.37907 -0.70022,0.37907 -0.16133,0 -0.4349,0.24879 -0.60794,0.55288 -0.19026,0.33436 -0.46611,0.55334 -0.69794,0.55405 -0.3499,0.001 -1.2788,0.78408 -1.2788,1.07796 0,0.068 -0.0713,0.0999 -0.15851,0.0708 -0.0872,-0.0291 -0.43484,0.15793 -0.77257,0.41553 -0.33774,0.25761 -0.74364,0.46838 -0.90199,0.46838 -0.15836,0 -0.50132,0.23949 -0.76213,0.53221 -0.31418,0.35262 -0.73022,0.57315 -1.23289,0.65353 -0.41728,0.0667 -0.87461,0.26354 -1.01628,0.43737 -0.17631,0.21632 -0.28651,0.24744 -0.34925,0.0986 -0.0872,-0.2068 -0.43782,-0.14803 -1.54727,0.25935 -0.4135,0.15182 -0.92334,0.1881 -0.92395,0.0657 z m 30.8116,-0.0289 c -0.15863,-0.0888 -0.54617,-0.18105 -0.86119,-0.20505 -0.43269,-0.033 -0.62526,-0.1704 -0.78745,-0.56195 -0.35301,-0.85224 0.15074,-3.73229 0.92945,-5.31392 0.17503,-0.35551 0.47425,-1.14503 0.66492,-1.75448 0.19066,-0.60945 0.4435,-1.23275 0.56186,-1.38512 0.11836,-0.15236 0.27492,-0.60945 0.34791,-1.01575 0.073,-0.4063 0.33954,-1.36203 0.59232,-2.12384 0.25279,-0.76181 0.58179,-1.8422 0.73113,-2.40087 0.14933,-0.55866 0.43351,-1.2906 0.6315,-1.62652 0.38379,-0.65117 0.45454,-1.06347 0.20857,-1.21549 -0.17065,-0.10547 -1.59788,0.28206 -1.80627,0.49045 -0.20442,0.20442 -0.62786,0.16227 -0.62786,-0.0625 0,-0.33133 0.39213,-0.60377 2.09923,-1.45842 0.90063,-0.4509 1.98102,-1.09295 2.40086,-1.42679 0.41984,-0.33383 0.82567,-0.60778 0.90186,-0.60876 0.0762,-9.2e-4 0.13851,0.34222 0.13851,0.76268 0,0.5262 -0.17269,1.04513 -0.55405,1.66491 -0.30472,0.49525 -0.55404,1.04692 -0.55404,1.22594 0,0.17902 -0.12681,0.50654 -0.28179,0.7278 -0.15498,0.22127 -0.3663,0.88384 -0.4696,1.47238 -0.26726,1.52269 -1.05969,4.43271 -1.47324,5.4101 -0.1934,0.45709 -0.40554,1.1635 -0.47144,1.5698 -0.0659,0.4063 -0.27058,0.90494 -0.45487,1.10809 -0.18429,0.20315 -0.43036,0.7849 -0.54682,1.29278 -0.11646,0.50787 -0.3137,1.29739 -0.43832,1.75448 -0.46351,1.70014 0.0568,2.11793 2.41408,1.9386 1.45405,-0.11061 1.74194,0.038 1.11025,0.57295 -0.91308,0.7733 -1.98848,1.22804 -2.65022,1.12065 -0.35327,-0.0573 -0.82784,-0.0337 -1.05459,0.0525 -0.22932,0.0872 -0.54027,0.0851 -0.7007,-0.005 z m -16.02479,-0.22816 c -0.008,-0.21969 -0.0908,-0.28476 -0.24256,-0.19003 -0.39726,0.24791 -0.88403,0.25677 -1.30391,0.0237 -0.22242,-0.12345 -0.46491,-0.20741 -0.53887,-0.18657 -0.0739,0.0208 -0.26308,-0.21083 -0.42028,-0.51481 -0.34249,-0.66231 -0.422,-0.67935 -0.63993,-0.13717 -0.16055,0.39943 -0.16748,0.39585 -0.17873,-0.0923 -0.006,-0.27933 0.0714,-0.50787 0.17298,-0.50787 0.26607,0 0.22783,-0.50671 -0.0462,-0.61184 -0.15461,-0.0593 -0.0936,-0.18985 0.18469,-0.39523 0.22854,-0.16866 0.41617,-0.40582 0.41695,-0.52703 7.4e-4,-0.12121 0.31244,-0.39779 0.69256,-0.61462 l 0.69114,-0.39423 0.32319,0.42898 c 0.17776,0.23593 0.32319,0.55454 0.32319,0.70802 0,0.15348 0.27595,0.48953 0.61322,0.74678 0.53333,0.40679 0.69574,0.44415 1.24661,0.28677 0.69872,-0.19962 2.17107,-0.908 2.48878,-1.1974 0.11152,-0.10158 0.50803,-0.39245 0.88114,-0.64639 0.37312,-0.25394 0.80796,-0.75258 0.96631,-1.10809 0.15836,-0.35551 0.40224,-0.85713 0.54197,-1.11471 0.13972,-0.25758 0.29477,-0.8228 0.34455,-1.25606 0.0498,-0.43326 0.1858,-0.90257 0.30228,-1.04293 0.26015,-0.31346 0.22028,-4.32628 -0.0464,-4.66614 -0.11733,-0.14955 -0.11794,-0.31216 -0.002,-0.46171 0.0987,-0.12696 0.19687,-0.68794 0.21821,-1.2466 l 0.0388,-1.01575 -0.61993,0.60022 c -0.34096,0.33012 -0.6783,0.60021 -0.74964,0.60021 -0.30269,0 -0.09,-0.5408 0.42432,-1.07902 0.30473,-0.31886 0.55405,-0.64807 0.55405,-0.73156 0,-0.0835 0.24932,-0.39068 0.55405,-0.68262 0.30472,-0.29195 0.55404,-0.63993 0.55404,-0.77329 0,-0.13335 0.088,-0.24247 0.19559,-0.24247 0.10756,0 0.15506,-0.0656 0.10553,-0.14569 -0.0495,-0.0801 0.23645,-0.49928 0.63549,-0.93143 0.39904,-0.43216 0.72553,-0.73041 0.72553,-0.66277 0,0.0676 0.12818,0.0166 0.28485,-0.11342 0.21773,-0.1807 0.33584,-0.18542 0.50124,-0.02 0.1654,0.1654 0.14261,0.7489 -0.0967,2.47615 -0.1722,1.24286 -0.31595,3.4466 -0.31943,4.89718 -0.005,1.91687 -0.0849,2.85031 -0.29376,3.41662 -0.1581,0.42855 -0.37826,1.11162 -0.48926,1.51792 -0.11099,0.4063 -0.25058,0.78028 -0.31019,0.83107 -0.15627,0.13313 -0.52496,0.93953 -0.67551,1.47746 -0.0711,0.25393 -0.32488,0.71102 -0.56402,1.01575 -0.23914,0.30472 -0.58098,0.74018 -0.75963,0.96767 -0.17865,0.22749 -0.3984,0.41448 -0.48833,0.41553 -0.0899,10e-4 -0.35605,0.20968 -0.5914,0.46362 -0.23534,0.25394 -0.48087,0.4617 -0.54562,0.4617 -0.0648,0 -0.26928,0.18699 -0.45451,0.41554 -0.26197,0.32323 -0.28906,0.47315 -0.12194,0.67492 0.15682,0.18935 0.0528,0.1756 -0.38538,-0.0509 -0.33012,-0.17067 -0.60021,-0.2284 -0.60021,-0.12829 0,0.1001 -0.33015,0.28092 -0.73365,0.40182 -0.40351,0.12089 -0.89868,0.37355 -1.10037,0.56146 -0.4442,0.41383 -0.59107,0.43497 -0.44896,0.0646 0.0585,-0.15237 0.0211,-0.27703 -0.083,-0.27703 -0.10413,0 -0.32026,-0.0502 -0.48027,-0.11164 -0.19445,-0.0746 -0.3487,0.0326 -0.46511,0.32319 -0.13509,0.33729 -0.17679,0.35989 -0.18587,0.10075 z m 77.00071,-1.51228 c -0.1883,-0.22689 -0.17568,-0.27702 0.0697,-0.27702 0.1648,0 0.29963,0.12466 0.29963,0.27702 0,0.15236 -0.0314,0.27702 -0.0697,0.27702 -0.0383,0 -0.17319,-0.12466 -0.29964,-0.27702 z m -55.5893,-0.25698 c 0,-0.21057 1.48631,-0.81149 1.63626,-0.66154 0.18061,0.18061 -0.76524,0.81756 -1.22073,0.82206 -0.22854,0.002 -0.41553,-0.07 -0.41553,-0.16052 z m 37.49046,-0.0909 c 0,-0.22041 0.60314,-0.54678 0.94506,-0.51139 0.0627,0.006 0.30573,-0.19228 0.54007,-0.44173 0.23434,-0.24944 0.53433,-0.45353 0.66665,-0.45353 0.13231,0 0.3767,-0.20777 0.54309,-0.46171 0.16639,-0.25393 0.45918,-0.4617 0.65065,-0.4617 0.2005,0 0.34812,-0.12932 0.34812,-0.30498 0,-0.16774 0.45371,-0.75151 1.00824,-1.29725 0.58499,-0.57573 0.96734,-1.09884 0.91082,-1.24614 -0.0536,-0.13962 -0.009,-0.30873 0.0999,-0.37579 0.1085,-0.067 0.19727,-0.28323 0.19727,-0.48038 0,-0.19716 0.0775,-0.35847 0.17224,-0.35847 0.0947,0 0.22499,-0.16621 0.28947,-0.36936 0.0645,-0.20315 0.22367,-0.36937 0.35376,-0.36937 0.31898,0 0.80595,-1.17622 0.95577,-2.30852 0.0672,-0.50788 0.18397,-1.00652 0.25949,-1.10809 0.52886,-0.71128 0.80148,-2.72198 0.80128,-5.90983 -1.3e-4,-2.0292 -0.23558,-3.39268 -0.82916,-4.80173 -0.21395,-0.50788 -0.45071,-1.08963 -0.52614,-1.29278 -0.0754,-0.20315 -0.32276,-0.75598 -0.54963,-1.22851 -0.22804,-0.47497 -0.42432,-1.25847 -0.43893,-1.75214 -0.0218,-0.73606 -0.0913,-0.90486 -0.3958,-0.96057 -0.20316,-0.0372 -0.51988,-0.20113 -0.70384,-0.36436 -0.29092,-0.25814 -0.35887,-0.26167 -0.52193,-0.0271 -0.16267,0.234 -0.17688,0.23303 -0.1074,-0.007 0.1439,-0.4979 -0.5771,-1.29278 -1.17262,-1.29278 -0.29781,1e-5 -0.54147,-0.075 -0.54147,-0.16661 0,-0.0916 -0.26413,-0.25869 -0.58695,-0.37122 -0.32283,-0.11254 -1.00242,-0.47122 -1.51021,-0.79707 -0.61521,-0.39478 -0.94827,-0.51739 -0.99823,-0.3675 -0.0412,0.12373 -0.15607,0.22495 -0.25518,0.22495 -0.0991,0 -0.12882,-0.0831 -0.0661,-0.18468 0.11098,-0.17956 -0.13062,-0.25945 -0.60021,-0.19847 -0.12697,0.0165 -0.23086,-0.0365 -0.23086,-0.11771 0,-0.22733 -1.07379,-0.65023 -1.29845,-0.51138 -0.10945,0.0677 -0.67237,0.13936 -1.25092,0.15936 -1.10965,0.0384 -2.80454,0.62024 -2.80571,0.96323 -3.7e-4,0.11148 -0.37507,0.61012 -0.83263,1.10809 -0.45756,0.49798 -0.88711,1.11235 -0.95456,1.36528 -0.0674,0.25293 -0.23327,0.57052 -0.3685,0.70575 -0.13523,0.13523 -0.24587,0.41162 -0.24587,0.61419 0,0.20257 -0.0919,0.54011 -0.20433,0.75009 -0.25745,0.48106 -0.35498,3.79781 -0.14999,5.1013 0.45142,2.87061 2.21419,4.77589 5.22971,5.65253 1.09961,0.31967 1.23721,0.4929 0.69908,0.88014 -0.18445,0.13273 -0.38759,0.38151 -0.45143,0.55285 -0.0944,0.25344 -0.29874,0.29665 -1.09593,0.23174 -1.30451,-0.1062 -3.51914,-0.64913 -3.7508,-0.91951 -0.10196,-0.11902 -0.35128,-0.27222 -0.55405,-0.34045 -1.78111,-0.59937 -3.21251,-4.01078 -2.94873,-7.02761 0.14823,-1.69534 0.53047,-2.83579 1.69954,-5.07075 0.83461,-1.59557 2.63502,-4.07111 2.63502,-3.62312 0,0.0645 0.47229,-0.3402 1.04952,-0.89932 1.53967,-1.49133 2.65586,-1.94614 4.30626,-1.75463 1.87688,0.21778 2.91869,0.46898 3.22803,0.77832 0.16902,0.16902 0.44681,0.30856 0.61731,0.31009 0.36756,0.003 1.63394,0.42852 1.8148,0.60937 0.0696,0.0696 0.25815,0.12786 0.41898,0.12942 0.5182,0.005 2.22143,1.75068 3.16292,3.24166 0.50351,0.79738 0.91547,1.55032 0.91547,1.67322 0,0.12289 0.11809,0.45872 0.26242,0.74628 0.62927,1.25378 1.68862,4.63581 1.87027,5.97096 0.1755,1.28989 0.1426,4.22179 -0.0611,5.44813 -0.26746,1.60995 -1.04445,4.03928 -1.45508,4.54942 -0.30941,0.38439 -0.98584,1.85826 -0.98584,2.14802 0,0.1411 -0.24538,0.50193 -0.5453,0.80184 -0.29991,0.29992 -0.72885,0.87189 -0.9532,1.27106 -0.22434,0.39917 -0.4776,0.68268 -0.56279,0.63003 -0.0852,-0.0526 -0.1549,-0.008 -0.1549,0.0999 0,0.10757 -0.14543,0.34831 -0.32319,0.53498 -0.41719,0.43811 -0.76854,0.96604 -0.89968,1.35184 -0.0572,0.16836 -0.26497,0.3482 -0.46164,0.39963 -0.19668,0.0514 -0.33443,0.20455 -0.30612,0.34027 0.0328,0.15724 -0.0992,0.23081 -0.36388,0.20279 -0.24937,-0.0264 -0.50698,0.10277 -0.64464,0.3232 -0.13521,0.2165 -0.43029,0.36715 -0.71915,0.36715 -0.26943,0 -0.5377,0.12466 -0.59617,0.27702 -0.1336,0.34816 -0.67194,0.36542 -0.67194,0.0215 z m 104.99175,-1.22197 c 0.0628,-0.10157 0.15079,-0.18468 0.19558,-0.18468 0.0448,0 0.0814,0.0831 0.0814,0.18468 0,0.10158 -0.088,0.18468 -0.19557,0.18468 -0.10758,0 -0.14422,-0.0831 -0.0814,-0.18468 z m 3.69961,-2.96447 c 0.0595,-0.0963 0.19799,-0.17503 0.30777,-0.17503 0.10977,0 0.30999,-0.14544 0.44494,-0.32319 0.22627,-0.29809 0.24579,-0.29894 0.2512,-0.0109 0.006,0.34848 -0.18202,0.50504 -0.7371,0.61193 -0.20624,0.0397 -0.3263,-0.007 -0.26681,-0.10281 z m 1.48336,-0.96794 c 0.0693,-0.18214 0.17263,-0.28463 0.22949,-0.22777 0.0569,0.0569 1.1e-4,0.20588 -0.1261,0.33116 -0.18239,0.18103 -0.20361,0.15982 -0.10339,-0.10339 z m 1.11175,-0.93554 c 0.064,-0.16673 0.24594,-0.30315 0.40438,-0.30315 0.15842,0 0.2534,0.0235 0.21109,0.0523 -0.0423,0.0287 -0.22429,0.16516 -0.40438,0.30315 -0.28505,0.21842 -0.31237,0.21166 -0.21109,-0.0523 z m 0.63666,-0.62634 c 0.008,-0.20143 0.91761,-0.83303 0.91761,-0.63746 0,0.1853 -0.60853,0.77597 -0.79944,0.77597 -0.0682,0 -0.12137,-0.0623 -0.11817,-0.13851 z m 9.17742,-3.70474 c -0.2756,-0.16722 -0.6301,-0.57595 -0.78782,-0.90828 -0.26328,-0.55486 -0.63876,-0.81891 -0.63876,-0.44921 0,0.0853 -0.20776,0.2497 -0.4617,0.3654 -0.3993,0.18194 -0.46171,0.16549 -0.46171,-0.12173 0,-0.18265 0.18699,-0.49396 0.41554,-0.69179 0.52191,-0.45177 2.30723,-1.55374 2.51725,-1.55374 0.0863,0 0.37598,0.17225 0.6436,0.38277 0.57279,0.45056 0.6646,1.50758 0.20768,2.39116 -0.40339,0.78007 -0.82777,0.95331 -1.43408,0.58542 z m -3.06729,-0.15382 c -0.0118,-0.21768 0.10324,-0.44362 0.2556,-0.50209 0.15236,-0.0585 0.27702,-0.0258 0.27702,0.0726 0,0.0984 -0.077,0.17888 -0.17114,0.17888 -0.0941,0 -0.20914,0.14544 -0.2556,0.3232 -0.0666,0.25493 -0.089,0.2396 -0.10588,-0.0726 z m -173.62256,-0.13566 c 0,-0.0384 0.14543,-0.18379 0.32319,-0.3232 0.29292,-0.22972 0.29945,-0.22318 0.0697,0.0697 -0.24126,0.30764 -0.39292,0.40547 -0.39292,0.25347 z m -14.58706,-5.20458 c 10e-4,-0.19717 0.0731,-0.46934 0.15898,-0.60483 0.12931,-0.20397 0.17292,-0.20264 0.25365,0.008 0.0536,0.13974 -0.0179,0.41192 -0.15898,0.60483 -0.25122,0.34357 -0.25642,0.34341 -0.25365,-0.008 z m 131.44463,-3.51139 c -0.72329,-0.3924 -0.68798,-1.14917 0.0786,-1.68485 l 0.58011,-0.40536 0.51107,0.40536 c 1.39315,1.10503 0.3995,2.5362 -1.16978,1.68485 z M 311.6877,271.36422 c 0,-0.0871 -0.12381,-0.11076 -0.27514,-0.0527 -0.1849,0.071 -0.31295,-0.0451 -0.39042,-0.35373 -0.0872,-0.3475 0.006,-0.58039 0.3821,-0.95669 l 0.49738,-0.49738 0.67794,0.36299 c 0.4887,0.26167 0.69425,0.50476 0.73638,0.87087 0.0417,0.36277 -0.0242,0.50788 -0.23086,0.50788 -0.15911,0 -0.28929,0.0623 -0.28929,0.13851 0,0.0762 -0.24932,0.13851 -0.55404,0.13851 -0.30473,0 -0.55405,-0.0712 -0.55405,-0.15826 z m 26.15006,-1.9966 c -0.40983,-0.58512 -0.37524,-1.21129 0.0748,-1.35413 0.20315,-0.0645 0.36937,-0.19474 0.36937,-0.28947 0,-0.0947 0.15666,-0.17223 0.34812,-0.17223 0.48736,0 0.97782,0.8272 0.90942,1.53382 -0.0516,0.53323 -0.12208,0.59544 -0.73212,0.64629 -0.53106,0.0443 -0.73783,-0.0334 -0.96958,-0.36428 z m -86.95698,-33.50486 c -0.16953,-0.16953 0.22854,-1.1442 0.51169,-1.25286 0.27009,-0.10364 0.1903,0.32407 -0.14041,0.7526 -0.0945,0.12252 -0.1183,0.30951 -0.0528,0.41553 0.12507,0.20238 -0.13237,0.27087 -0.31851,0.0847 z m 1.08199,-2.40024 c -0.1829,-0.47663 -0.13089,-0.63145 0.2111,-0.62845 0.2377,0.002 0.26047,0.0426 0.0861,0.15327 -0.13071,0.0829 -0.184,0.28885 -0.11875,0.45888 0.0651,0.16964 0.0768,0.30843 0.026,0.30843 -0.0508,0 -0.14278,-0.13146 -0.20445,-0.29213 z"
       id="path3046"
       inkscape:connector-curvature="0"
       sodipodi:nodetypes="ssccsccssscscsssscsssscsscccscscscccccccccscscccsscscccsssscsscscssccccccccsccsccscssscsscsccsccsccccssssccccsccssssssssssssscccsscscsssssssscssssccsccscscccscsccccsscccscccscccssscccccsssscccssssscccccssssssccccccsccscccsccscccccssssssssscccccscssssscccsccscssscssssscssccsccsscccccsscsccssscscccscccccsssssssscccccccccsssssccssscscccssccscsscccccsccscccssscsccscscscsccscsccssscscsccsssccsccccsscssscsscsssssssccssccsscccsscsccsccccccccsscssssscccscssscscssccsssscccssscssccscscssssscccssscccccsscsccssscccssscsssscccssssscscsccscsccccssccssccssssccccscccsssccsssccsscccccccscsscccccccscscsscsscsccccccccccssscssssscccccsccsssscccccssccccccsssssscccsccccsssscsssscccsccccccscssccscccccsssscccscscscccccssscscccsscscsssccccccccsscccccsssssccscscsssssssccccccccccscscsccccsssccccccccscsscscsscssccsccccccsccssccscccscccccsssccsscscccscsssccsscssssscsccscccscscsccscccscsscsssccccsssssscccsscscsscccssccsscsccccssscccscccccscccsccccsscccscssscscccsscccsccccccccscccssccccscssssccsscccccccccccccssc" />
  </g>
</svg>
